<?xml version="1.0" encoding="UTF-8" standalone="no"?>
<!-- Created with Inkscape (http://www.inkscape.org/) -->

<svg
   width="102.31866mm"
   height="112.92092mm"
   viewBox="0 0 102.31866 112.92092"
   version="1.1"
   id="svg1"
   inkscape:export-filename="x.svg"
   inkscape:export-xdpi="96"
   inkscape:export-ydpi="96"
   inkscape:version="1.3 (0e150ed6c4, 2023-07-21)"
   sodipodi:docname="spacewise-logo-inkscape.svg"
   xmlns:inkscape="http://www.inkscape.org/namespaces/inkscape"
   xmlns:sodipodi="http://sodipodi.sourceforge.net/DTD/sodipodi-0.dtd"
   xmlns="http://www.w3.org/2000/svg"
   xmlns:svg="http://www.w3.org/2000/svg">
  <sodipodi:namedview
     id="namedview1"
     pagecolor="#ffffff"
     bordercolor="#000000"
     borderopacity="0.25"
     inkscape:showpageshadow="2"
     inkscape:pageopacity="0.0"
     inkscape:pagecheckerboard="0"
     inkscape:deskcolor="#d1d1d1"
     inkscape:document-units="mm"
     showgrid="false"
     inkscape:zoom="0.36569514"
     inkscape:cx="-306.26603"
     inkscape:cy="575.61607"
     inkscape:window-width="1920"
     inkscape:window-height="1017"
     inkscape:window-x="-8"
     inkscape:window-y="-8"
     inkscape:window-maximized="1"
     inkscape:current-layer="layer1">
    <inkscape:grid
       id="grid4"
       units="px"
       originx="-157.71243"
       originy="-515.73992"
       spacingx="0.26458333"
       spacingy="0.26458334"
       empcolor="#0099e5"
       empopacity="0.30196078"
       color="#0099e5"
       opacity="0.14901961"
       empspacing="5"
       dotted="false"
       gridanglex="30"
       gridanglez="30"
       visible="false" />
  </sodipodi:namedview>
  <defs
     id="defs1" />
  <g
     inkscape:label="Ebene 1"
     inkscape:groupmode="layer"
     id="layer1"
     transform="translate(-41.728082,-136.45619)">
    <g
       id="g1"
       inkscape:export-filename=".\g1.svg"
       inkscape:export-xdpi="96"
       inkscape:export-ydpi="96">
      <ellipse
         style="fill:#131b23;fill-opacity:1;stroke:#131b23;stroke-width:4;stroke-dasharray:none;stroke-opacity:1"
         id="path1-9"
         cx="92.88752"
         cy="198.21786"
         rx="49.159233"
         ry="49.159237" />
      <path
         style="fill:#8f43ee;fill-opacity:1;stroke:#8f43ee;stroke-width:0.625;stroke-dasharray:none;stroke-opacity:1"
         d="m 109.84247,244.62372 11.93788,-5.96894 10.30999,-11.21437 6.69246,-12.66139 3.0749,-14.65104 -1.62789,-7.0542 c 0,0 -5.06455,-2.17052 -9.58648,0.90439 -4.52193,3.07491 -0.18088,11.57612 -0.18088,11.57612 0,0 -6.87333,-0.90438 -10.31,2.17053 -3.43666,3.07491 -0.36175,11.93788 -1.08526,11.93788 -0.72351,0 -3.79842,-1.62789 -8.50122,-0.54263 -4.70279,1.08526 -4.88367,12.48051 -4.88367,12.48051 0,0 -6.126544,0.73978 -6.210554,-14.43979 -0.0137,-2.46846 0.2435,-8.66259 -0.72351,-9.1569 -2.72047,-1.39065 -6.10277,-0.1314 -6.10277,-0.1314 0,0 -6.163499,-2.83679 -6.299156,0.2155 -0.135658,3.0523 0.04522,11.41786 -0.316535,13.8597 -0.723508,4.88368 -6.330696,9.76736 -6.330696,9.76736 0,0 -0.180877,-11.39525 -4.883677,-12.48051 -4.702802,-1.08526 -7.77771,0.54263 -8.501218,0.54263 -0.723508,0 2.3514,-8.86297 -1.085263,-11.93788 -3.436662,-3.07491 -10.309987,-2.17053 -10.309987,-2.17053 0,0 4.341047,-8.50121 -0.180877,-11.57612 -4.521925,-3.07491 -9.58648,-0.90439 -9.58648,-0.90439 l -1.627893,7.0542 3.074909,14.65104 6.692448,12.66139 10.309989,11.21437 11.937878,5.96894 17.151778,2.65592 z"
         id="path12-6-0"
         sodipodi:nodetypes="ccccccscssscsscsscssscscccccccc" />
      <ellipse
         style="fill:none;fill-opacity:1;stroke:#8f43ee;stroke-width:4;stroke-dasharray:none;stroke-opacity:1"
         id="path1-3-7"
         cx="92.887314"
         cy="198.21753"
         rx="49.159233"
         ry="49.159237" />
      <path
         style="fill:#8f43ee;fill-opacity:1;stroke:#8f43ee;stroke-width:1.06747;stroke-dasharray:none;stroke-opacity:1"
         d="m 80.187727,194.70973 c 0,0 -1.618725,5.86228 -1.719206,8.715 -0.10037,2.85271 -0.210703,6.36385 -0.210703,6.36385 0,0 12.142969,0.50566 14.561848,0.46408 2.41885,-0.0414 14.574554,-0.41376 14.929974,-0.52156 0.35535,-0.10781 0.35535,-0.10781 0.35535,-0.10781 0,0 -0.26273,-6.2567 -0.70845,-8.06988 -0.4455,-1.81317 -1.43614,-6.70211 -1.43614,-6.70211 z"
         id="path9-6-5" />
      <path
         id="path3-2-5"
         style="fill:#8f43ee;fill-opacity:1;stroke:#8f43ee;stroke-width:1.77911;stroke-dasharray:none;stroke-opacity:1"
         d="m 117.61963,166.48852 -0.43255,8.0443 c 0.37794,0.42014 -0.069,5.68633 -0.069,5.68633 l 9.76221,5.04208 5.08873,4.03426 c 0.32804,-16.56512 -14.27747,-22.77335 -14.34943,-22.80697 z"
         sodipodi:nodetypes="cccccc" />
      <path
         id="path3-3-4-1"
         style="fill:#8f43ee;fill-opacity:1;stroke:#8f43ee;stroke-width:1.77911;stroke-dasharray:none;stroke-opacity:1"
         d="m 69.494995,166.51072 0.43255,8.04429 c -0.377937,0.42015 0.06901,5.68634 0.06901,5.68634 l -9.762207,5.04208 -5.088725,4.03425 C 54.81757,172.75257 69.423075,166.54434 69.495031,166.51072 Z"
         sodipodi:nodetypes="cccccc" />
      <path
         id="path2-2-4"
         style="fill:#8f43ee;fill-opacity:1;stroke:#8f43ee;stroke-width:1.77911;stroke-dasharray:none;stroke-opacity:1"
         d="m 88.668887,139.25906 c 0,0 -20.023163,15.35948 -20.023163,27.15098 0,11.79151 1.166986,26.37609 1.500716,27.61731 0.333583,1.24121 1.502636,8.99831 1.502636,8.99831 8.882788,1.67944 12.614045,3.42451 21.49927,2.75891 9.167704,0.56448 21.886684,-2.70039 21.886684,-2.70039 0,0 1.16717,-7.75888 1.50075,-9.00008 0.33358,-1.24122 1.50264,-15.82403 1.50264,-27.61553 0,-11.79151 -20.190024,-26.99761 -20.190024,-26.99761 l -4.6712,-2.049 z"
         sodipodi:nodetypes="cscccccsccc" />
      <ellipse
         style="fill:#131b23;fill-opacity:1;stroke:#8f43ee;stroke-width:1.15642;stroke-dasharray:none;stroke-opacity:1"
         id="path5-7-7"
         cx="93.21347"
         cy="158.92538"
         rx="6.4118047"
         ry="5.9618044" />
    </g>
  </g>
</svg>
