<?xml version="1.0" encoding="UTF-8" standalone="no"?>
<!-- Created with Inkscape (http://www.inkscape.org/) -->

<svg
   width="210mm"
   height="297mm"
   viewBox="0 0 210 297"
   version="1.1"
   id="svg1"
   inkscape:export-filename="x.svg"
   inkscape:export-xdpi="96"
   inkscape:export-ydpi="96"
   inkscape:version="1.3 (0e150ed6c4, 2023-07-21)"
   sodipodi:docname="spacewise-logo-inkscape.svg"
   xmlns:inkscape="http://www.inkscape.org/namespaces/inkscape"
   xmlns:sodipodi="http://sodipodi.sourceforge.net/DTD/sodipodi-0.dtd"
   xmlns="http://www.w3.org/2000/svg"
   xmlns:svg="http://www.w3.org/2000/svg">
  <sodipodi:namedview
     id="namedview1"
     pagecolor="#ffffff"
     bordercolor="#000000"
     borderopacity="0.25"
     inkscape:showpageshadow="2"
     inkscape:pageopacity="0.0"
     inkscape:pagecheckerboard="0"
     inkscape:deskcolor="#d1d1d1"
     inkscape:document-units="mm"
     showgrid="false"
     inkscape:zoom="0.36569514"
     inkscape:cx="-306.26603"
     inkscape:cy="575.61607"
     inkscape:window-width="1920"
     inkscape:window-height="1017"
     inkscape:window-x="-8"
     inkscape:window-y="-8"
     inkscape:window-maximized="1"
     inkscape:current-layer="layer1">
    <inkscape:grid
       id="grid4"
       units="px"
       originx="0"
       originy="0"
       spacingx="0.26458333"
       spacingy="0.26458334"
       empcolor="#0099e5"
       empopacity="0.30196078"
       color="#0099e5"
       opacity="0.14901961"
       empspacing="5"
       dotted="false"
       gridanglex="30"
       gridanglez="30"
       visible="false" />
  </sodipodi:namedview>
  <defs
     id="defs1" />
  <g
     inkscape:label="Ebene 1"
     inkscape:groupmode="layer"
     id="layer1">
    <ellipse
       style="fill:#ffc857;fill-opacity:1;stroke:#131b23;stroke-width:4;stroke-dasharray:none;stroke-opacity:1"
       id="path1"
       cx="71.886063"
       cy="68.677925"
       rx="49.159233"
       ry="49.159237" />
    <g
       id="g11"
       transform="translate(56.27571,-37.858205)">
      <path
         style="fill:#2b234a;fill-opacity:1;stroke:#131b23;stroke-width:0.3;stroke-dasharray:none;stroke-opacity:1"
         d="m 134.03769,59.797829 c 0,0 -0.43867,1.708574 -0.4659,2.540005 -0.0272,0.831429 -0.0571,1.854757 -0.0571,1.854757 0,0 3.29071,0.147377 3.94622,0.135257 0.6555,-0.01208 3.94966,-0.120589 4.04598,-0.15201 0.0963,-0.03142 0.0963,-0.03142 0.0963,-0.03142 0,0 -0.0712,-1.82353 -0.19199,-2.351983 -0.12073,-0.528455 -0.38919,-1.953346 -0.38919,-1.953346 z"
         id="path9" />
      <path
         id="path3"
         style="fill:#5d339c;fill-opacity:1;stroke:#131b23;stroke-width:0.499999;stroke-dasharray:none"
         d="m 144.18163,51.572696 -0.11722,2.344527 c 0.10242,0.122451 -0.0187,1.657295 -0.0187,1.657295 l 2.64553,1.469526 1.37903,1.175791 c 0.0889,-4.827939 -3.86915,-6.637339 -3.88865,-6.647139 z"
         sodipodi:nodetypes="cccccc" />
      <path
         id="path3-3"
         style="fill:#5d339c;fill-opacity:1;stroke:#131b23;stroke-width:0.499999;stroke-dasharray:none"
         d="m 131.13999,51.579166 0.11722,2.344527 c -0.10242,0.122451 0.0187,1.657295 0.0187,1.657295 l -2.64553,1.469526 -1.37903,1.175791 c -0.0889,-4.827939 3.86915,-6.637339 3.88865,-6.647139 z"
         sodipodi:nodetypes="cccccc" />
      <path
         id="path2"
         style="fill:#e7dbfa;fill-opacity:1;stroke:#131b23;stroke-width:0.5;stroke-dasharray:none;stroke-opacity:1"
         d="m 136.33606,43.636613 c 0,0 -5.42622,4.476552 -5.42622,7.913212 0,3.436659 0.31625,7.687367 0.40669,8.049121 0.0904,0.361754 0.40721,2.622579 0.40721,2.622579 2.40721,0.489477 3.41837,0.998081 5.82624,0.804088 2.48442,0.164519 5.93123,-0.787032 5.93123,-0.787032 0,0 0.3163,-2.261342 0.4067,-2.623095 0.0904,-0.361754 0.40721,-4.611946 0.40721,-8.048605 0,-3.436659 -5.47144,-7.86851 -5.47144,-7.86851 l -1.26588,-0.597185 z"
         sodipodi:nodetypes="cscccccsccc" />
      <circle
         style="fill:#ffc857;fill-opacity:1;stroke:#131b23;stroke-width:0.325;stroke-dasharray:none;stroke-opacity:1"
         id="path5"
         cx="137.56763"
         cy="49.368404"
         r="1.7375808" />
      <path
         style="fill:#442b73;fill-opacity:1;stroke:#131b23;stroke-width:0.256277;stroke-dasharray:none;stroke-opacity:1"
         d="m 131.67207,61.257784 c 0,0 4.70653,0.142196 5.9658,0.142196 1.25927,0 5.08431,-0.08294 5.57228,-0.142196 0.48797,-0.05925 0.62963,-0.142196 0.62963,-0.142196 l -0.31481,1.256063 -3.51023,0.592481 -2.31391,0.0237 -2.61299,-0.03554 -3.21114,-0.568784 z"
         id="path10" />
      <path
         style="fill:#442b73;fill-opacity:1;stroke:#131b23;stroke-width:0.3;stroke-dasharray:none;stroke-opacity:1"
         d="m 137.57173,43.070102 -1.279,0.607523 -1.53479,1.470843 2.76583,-0.207838 2.78181,0.143888 -1.32696,-1.278993 z"
         id="path11" />
    </g>
    <path
       style="fill:#8f43ee;fill-opacity:1;stroke:#8f43ee;stroke-width:0.625;stroke-dasharray:none;stroke-opacity:1"
       d="m 88.841017,115.08378 11.937873,-5.96894 10.30999,-11.214369 6.69246,-12.66139 3.0749,-14.65104 -1.62789,-7.0542 c 0,0 -5.06455,-2.17052 -9.58648,0.90439 -4.52193,3.07491 -0.18088,11.57612 -0.18088,11.57612 0,0 -6.87333,-0.90438 -10.309993,2.17053 -3.43666,3.07491 -0.36175,11.93788 -1.08526,11.93788 -0.72351,0 -3.79842,-1.62789 -8.50122,-0.54263 -4.7028,1.08526 -4.88368,12.480509 -4.88368,12.480509 0,0 -6.12654,0.73978 -6.21055,-14.439789 -0.0137,-2.46846 0.2435,-8.66259 -0.72351,-9.1569 -2.72047,-1.39065 -6.10277,-0.1314 -6.10277,-0.1314 0,0 -6.163499,-2.83679 -6.299156,0.2155 -0.135658,3.0523 0.04522,11.41786 -0.316535,13.8597 -0.723508,4.88368 -6.330696,9.767359 -6.330696,9.767359 0,0 -0.180877,-11.395249 -4.883677,-12.480509 -4.702802,-1.08526 -7.77771,0.54263 -8.501218,0.54263 -0.723508,0 2.3514,-8.86297 -1.085263,-11.93788 -3.436662,-3.07491 -10.309987,-2.17053 -10.309987,-2.17053 0,0 4.341047,-8.50121 -0.180877,-11.57612 -4.521925,-3.07491 -9.58648,-0.90439 -9.58648,-0.90439 l -1.627893,7.0542 3.074909,14.65104 6.692448,12.66139 10.309989,11.214369 11.937878,5.96894 17.151778,2.65592 z"
       id="path12-6"
       sodipodi:nodetypes="ccccccscssscsscsscssscscccccccc" />
    <ellipse
       style="fill:none;fill-opacity:1;stroke:#8f43ee;stroke-width:4;stroke-dasharray:none;stroke-opacity:1"
       id="path1-3"
       cx="71.885857"
       cy="68.677589"
       rx="49.159233"
       ry="49.159237" />
    <path
       style="fill:#8f43ee;fill-opacity:1;stroke:#8f43ee;stroke-width:1.06747;stroke-dasharray:none;stroke-opacity:1"
       d="m 59.186268,65.169791 c 0,0 -1.618725,5.86228 -1.719206,8.715 -0.10037,2.85271 -0.210703,6.36385 -0.210703,6.36385 0,0 12.142969,0.50566 14.561848,0.46408 2.41885,-0.0414 14.57455,-0.41376 14.92998,-0.52156 0.35535,-0.10781 0.35535,-0.10781 0.35535,-0.10781 0,0 -0.26273,-6.2567 -0.70846,-8.06988 -0.4455,-1.81317 -1.43614,-6.70211 -1.43614,-6.70211 z"
       id="path9-6" />
    <path
       id="path3-2"
       style="fill:#8f43ee;fill-opacity:1;stroke:#8f43ee;stroke-width:1.77911;stroke-dasharray:none;stroke-opacity:1"
       d="m 96.618177,36.948581 -0.43255,8.044299 c 0.37794,0.42014 -0.069,5.686331 -0.069,5.686331 l 9.762203,5.04208 5.08873,4.03426 C 111.2956,43.19043 96.690097,36.982206 96.618137,36.948581 Z"
       sodipodi:nodetypes="cccccc" />
    <path
       id="path3-3-4"
       style="fill:#8f43ee;fill-opacity:1;stroke:#8f43ee;stroke-width:1.77911;stroke-dasharray:none;stroke-opacity:1"
       d="m 48.493536,36.97078 0.43255,8.04429 c -0.377937,0.42015 0.06901,5.686341 0.06901,5.686341 l -9.762207,5.04208 -5.088725,4.03425 C 33.816111,43.21263 48.421616,37.004405 48.493572,36.97078 Z"
       sodipodi:nodetypes="cccccc" />
    <path
       id="path2-2"
       style="fill:#8f43ee;fill-opacity:1;stroke:#8f43ee;stroke-width:1.77911;stroke-dasharray:none;stroke-opacity:1"
       d="m 67.667428,9.7191282 c 0,0 -20.023163,15.3594738 -20.023163,27.1509798 0,11.791503 1.166986,26.376083 1.500716,27.617303 0.333583,1.24121 1.502636,8.99831 1.502636,8.99831 8.882788,1.67944 12.614045,3.42451 21.49927,2.75891 9.1677,0.56448 21.88669,-2.70039 21.88669,-2.70039 0,0 1.16717,-7.75888 1.50075,-9.00008 0.33358,-1.24122 1.50264,-15.82403 1.50264,-27.615532 0,-11.791503 -20.19003,-26.9976028 -20.19003,-26.9976028 l -4.6712,-2.048999 z"
       sodipodi:nodetypes="cscccccsccc" />
    <ellipse
       style="fill:#ffc857;fill-opacity:1;stroke:#8f43ee;stroke-width:1.15642;stroke-dasharray:none;stroke-opacity:1"
       id="path5-7"
       cx="72.212013"
       cy="29.385445"
       rx="6.4118047"
       ry="5.9618044" />
    <ellipse
       style="fill:#131b23;fill-opacity:1;stroke:#131b23;stroke-width:4;stroke-dasharray:none;stroke-opacity:1"
       id="path1-9"
       cx="92.88752"
       cy="198.21786"
       rx="49.159233"
       ry="49.159237" />
    <path
       style="fill:#8f43ee;fill-opacity:1;stroke:#8f43ee;stroke-width:0.625;stroke-dasharray:none;stroke-opacity:1"
       d="m 109.84247,244.62372 11.93788,-5.96894 10.30999,-11.21437 6.69246,-12.66139 3.0749,-14.65104 -1.62789,-7.0542 c 0,0 -5.06455,-2.17052 -9.58648,0.90439 -4.52193,3.07491 -0.18088,11.57612 -0.18088,11.57612 0,0 -6.87333,-0.90438 -10.31,2.17053 -3.43666,3.07491 -0.36175,11.93788 -1.08526,11.93788 -0.72351,0 -3.79842,-1.62789 -8.50122,-0.54263 -4.70279,1.08526 -4.88367,12.48051 -4.88367,12.48051 0,0 -6.126544,0.73978 -6.210554,-14.43979 -0.0137,-2.46846 0.2435,-8.66259 -0.72351,-9.1569 -2.72047,-1.39065 -6.10277,-0.1314 -6.10277,-0.1314 0,0 -6.163499,-2.83679 -6.299156,0.2155 -0.135658,3.0523 0.04522,11.41786 -0.316535,13.8597 -0.723508,4.88368 -6.330696,9.76736 -6.330696,9.76736 0,0 -0.180877,-11.39525 -4.883677,-12.48051 -4.702802,-1.08526 -7.77771,0.54263 -8.501218,0.54263 -0.723508,0 2.3514,-8.86297 -1.085263,-11.93788 -3.436662,-3.07491 -10.309987,-2.17053 -10.309987,-2.17053 0,0 4.341047,-8.50121 -0.180877,-11.57612 -4.521925,-3.07491 -9.58648,-0.90439 -9.58648,-0.90439 l -1.627893,7.0542 3.074909,14.65104 6.692448,12.66139 10.309989,11.21437 11.937878,5.96894 17.151778,2.65592 z"
       id="path12-6-0"
       sodipodi:nodetypes="ccccccscssscsscsscssscscccccccc" />
    <ellipse
       style="fill:none;fill-opacity:1;stroke:#8f43ee;stroke-width:4;stroke-dasharray:none;stroke-opacity:1"
       id="path1-3-7"
       cx="92.887314"
       cy="198.21753"
       rx="49.159233"
       ry="49.159237" />
    <path
       style="fill:#8f43ee;fill-opacity:1;stroke:#8f43ee;stroke-width:1.06747;stroke-dasharray:none;stroke-opacity:1"
       d="m 80.187727,194.70973 c 0,0 -1.618725,5.86228 -1.719206,8.715 -0.10037,2.85271 -0.210703,6.36385 -0.210703,6.36385 0,0 12.142969,0.50566 14.561848,0.46408 2.41885,-0.0414 14.574554,-0.41376 14.929974,-0.52156 0.35535,-0.10781 0.35535,-0.10781 0.35535,-0.10781 0,0 -0.26273,-6.2567 -0.70845,-8.06988 -0.4455,-1.81317 -1.43614,-6.70211 -1.43614,-6.70211 z"
       id="path9-6-5" />
    <path
       id="path3-2-5"
       style="fill:#8f43ee;fill-opacity:1;stroke:#8f43ee;stroke-width:1.77911;stroke-dasharray:none;stroke-opacity:1"
       d="m 117.61963,166.48852 -0.43255,8.0443 c 0.37794,0.42014 -0.069,5.68633 -0.069,5.68633 l 9.76221,5.04208 5.08873,4.03426 c 0.32804,-16.56512 -14.27747,-22.77335 -14.34943,-22.80697 z"
       sodipodi:nodetypes="cccccc" />
    <path
       id="path3-3-4-1"
       style="fill:#8f43ee;fill-opacity:1;stroke:#8f43ee;stroke-width:1.77911;stroke-dasharray:none;stroke-opacity:1"
       d="m 69.494995,166.51072 0.43255,8.04429 c -0.377937,0.42015 0.06901,5.68634 0.06901,5.68634 l -9.762207,5.04208 -5.088725,4.03425 C 54.81757,172.75257 69.423075,166.54434 69.495031,166.51072 Z"
       sodipodi:nodetypes="cccccc" />
    <path
       id="path2-2-4"
       style="fill:#8f43ee;fill-opacity:1;stroke:#8f43ee;stroke-width:1.77911;stroke-dasharray:none;stroke-opacity:1"
       d="m 88.668887,139.25906 c 0,0 -20.023163,15.35948 -20.023163,27.15098 0,11.79151 1.166986,26.37609 1.500716,27.61731 0.333583,1.24121 1.502636,8.99831 1.502636,8.99831 8.882788,1.67944 12.614045,3.42451 21.49927,2.75891 9.167704,0.56448 21.886684,-2.70039 21.886684,-2.70039 0,0 1.16717,-7.75888 1.50075,-9.00008 0.33358,-1.24122 1.50264,-15.82403 1.50264,-27.61553 0,-11.79151 -20.190024,-26.99761 -20.190024,-26.99761 l -4.6712,-2.049 z"
       sodipodi:nodetypes="cscccccsccc" />
    <ellipse
       style="fill:#131b23;fill-opacity:1;stroke:#8f43ee;stroke-width:1.15642;stroke-dasharray:none;stroke-opacity:1"
       id="path5-7-7"
       cx="93.21347"
       cy="158.92538"
       rx="6.4118047"
       ry="5.9618044" />
  </g>
</svg>
